<svg xmlns="http://www.w3.org/2000/svg" width="1600" height="900" viewBox="0 0 1600 900">
  <defs>
    <marker id="arrow-blue" markerWidth="12" markerHeight="12" refX="10" refY="6" orient="auto">
      <path d="M0,0 L12,6 L0,12 Z" fill="#1F6FEB"/>
    </marker>
    <marker id="arrow-dark" markerWidth="12" markerHeight="12" refX="10" refY="6" orient="auto">
      <path d="M0,0 L12,6 L0,12 Z" fill="#55738E"/>
    </marker>
    <filter id="shadow" x="-20%" y="-20%" width="140%" height="140%">
      <feDropShadow dx="0" dy="8" stdDeviation="10" flood-color="#123B64" flood-opacity="0.12"/>
    </filter>
    <style>
      text { font-family: "PingFang SC", "Noto Sans CJK SC", "Microsoft YaHei", sans-serif; fill: #172B3A; }
      .title { font-size: 42px; font-weight: 700; letter-spacing: 1px; }
      .subtitle { font-size: 21px; fill: #5B6B7A; }
      .h { font-size: 27px; font-weight: 700; }
      .m { font-size: 23px; font-weight: 600; }
      .b { font-size: 20px; }
      .s { font-size: 17px; fill: #5B6B7A; }
      .mono { font-family: "SFMono-Regular", Consolas, monospace; font-size: 18px; }
    </style>
  </defs>
  <rect width="1600" height="900" fill="#FFFFFF"/>
  <rect x="0" y="0" width="18" height="900" fill="#1F6FEB"/>
  <text x="70" y="72" class="title">G1 摔倒诊断：找最早异常，而不是只看最后一帧</text>
  <text x="72" y="108" class="subtitle">示意时间序列；阈值应来自具体资产、策略和实验基线</text>
  <line x1="70" y1="130" x2="1530" y2="130" stroke="#A9BED1" stroke-width="2"/><text x="65" y="245" class="m">速度指令 command</text><line x1="245" y1="260" x2="1510" y2="260" stroke="#A9BED1" stroke-width="2"/><text x="65" y="390" class="m">实际速度</text><line x1="245" y1="405" x2="1510" y2="405" stroke="#A9BED1" stroke-width="2"/><text x="65" y="535" class="m">右脚接触</text><line x1="245" y1="550" x2="1510" y2="550" stroke="#A9BED1" stroke-width="2"/><text x="65" y="680" class="m">躯干 roll</text><line x1="245" y1="695" x2="1510" y2="695" stroke="#A9BED1" stroke-width="2"/><path d="M245 260 L1510 260" fill="none" stroke="#1F6FEB" stroke-width="7"/><path d="M245 405 C500 405, 630 395, 800 405 S1000 445, 1120 500 S1340 470, 1510 535" fill="none" stroke="#123B64" stroke-width="7"/><path d="M245 550 L760 550 L780 610 L850 610 L870 550 L1050 550 L1070 620 L1170 620 L1190 550 L1510 550" fill="none" stroke="#55738E" stroke-width="7"/><path d="M245 695 C700 695, 820 690, 990 700 S1120 735, 1210 790 S1380 820, 1510 835" fill="none" stroke="#C94B4B" stroke-width="7"/><line x1="1055" y1="165" x2="1055" y2="790" stroke="#E9A23B" stroke-width="5" stroke-dasharray="14 10"/><line x1="1220" y1="165" x2="1220" y2="845" stroke="#C94B4B" stroke-width="5" stroke-dasharray="14 10"/><rect x="860" y="150" width="330" height="48" rx="24" fill="#FFF6E7" stroke="#E9A23B" stroke-width="2"/><text x="1025" y="182" class="b" font-weight="700" text-anchor="middle">最早异常：足底接触/速度偏差</text><rect x="1250" y="150" width="230" height="48" rx="24" fill="#FFF0F0" stroke="#C94B4B" stroke-width="2"/><text x="1365" y="182" class="b" font-weight="700" text-anchor="middle">最终症状：摔倒</text><text x="875" y="865" class="s" text-anchor="middle">时间 →</text></svg>