ISO-10303-21;
HEADER;
FILE_DESCRIPTION (( 'STEP AP214' ),
    '1' );
FILE_NAME ('bin-ºÚÉ«2.STEP',
    '2026-07-17T14:05:40',
    ( '' ),
    ( '' ),
    'SwSTEP 2.0',
    'SolidWorks 2025',
    '' );
FILE_SCHEMA (( 'AUTOMOTIVE_DESIGN' ));
ENDSEC;

DATA;
#1 = EDGE_LOOP ( 'NONE', ( #219, #218, #74, #106 ) ) ;
#2 = DIRECTION ( 'NONE',  ( 0.000000000000000000, 1.000000000000000000, 0.000000000000000000 ) ) ;
#3 = CARTESIAN_POINT ( 'NONE',  ( 39.99999910593032837, 50.00000074505805969, -14.99999966472387314 ) ) ;
#4 = VECTOR ( 'NONE', #37, 1000.000000000000000 ) ;
#5 = EDGE_CURVE ( 'NONE', #22, #88, #193, .T. ) ;
#6 = CARTESIAN_POINT ( 'NONE',  ( -37.99999910593032837, 48.00000074505805259, -12.50000033527612686 ) ) ;
#7 = AXIS2_PLACEMENT_3D ( 'NONE', #255, #256, #34 ) ;
#8 = CARTESIAN_POINT ( 'NONE',  ( 37.99999910593032837, 48.00000074505805969, 14.99999966472387314 ) ) ;
#9 = VECTOR ( 'NONE', #298, 1000.000000000000000 ) ;
#10 =( NAMED_UNIT ( * ) SI_UNIT ( $, .STERADIAN. ) SOLID_ANGLE_UNIT ( ) );
#11 = VECTOR ( 'NONE', #163, 1000.000000000000000 ) ;
#12 = DIRECTION ( 'NONE',  ( 1.000000000000000000, 0.000000000000000000, -0.000000000000000000 ) ) ;
#13 = DIRECTION ( 'NONE',  ( 0.000000000000000000, -1.000000000000000000, 0.000000000000000000 ) ) ;
#14 = FACE_OUTER_BOUND ( 'NONE', #251, .T. ) ;
#15 = EDGE_CURVE ( 'NONE', #176, #170, #246, .T. ) ;
#16 = FILL_AREA_STYLE_COLOUR ( '', #39 ) ;
#17 = DIRECTION ( 'NONE',  ( 1.000000000000000000, 0.000000000000000000, 0.000000000000000000 ) ) ;
#18 = PRESENTATION_STYLE_ASSIGNMENT (( #242 ) ) ;
#19 = EDGE_LOOP ( 'NONE', ( #300, #197, #245, #77 ) ) ;
#20 = ORIENTED_EDGE ( 'NONE', *, *, #167, .F. ) ;
#21 = EDGE_CURVE ( 'NONE', #54, #29, #52, .T. ) ;
#22 = VERTEX_POINT ( 'NONE', #152 ) ;
#23 = DIRECTION ( 'NONE',  ( 0.000000000000000000, 0.000000000000000000, 1.000000000000000000 ) ) ;
#24 = VERTEX_POINT ( 'NONE', #253 ) ;
#25 = VECTOR ( 'NONE', #178, 1000.000000000000000 ) ;
#26 = ORIENTED_EDGE ( 'NONE', *, *, #15, .T. ) ;
#27 = PRODUCT_DEFINITION_FORMATION_WITH_SPECIFIED_SOURCE ( 'ä»', '', #231, .NOT_KNOWN. ) ;
#28 = VERTEX_POINT ( 'NONE', #84 ) ;
#29 = VERTEX_POINT ( 'NONE', #6 ) ;
#30 = ADVANCED_FACE ( 'NONE', ( #35 ), #282, .T. ) ;
#31 = LINE ( 'NONE', #182, #249 ) ;
#32 = DIRECTION ( 'NONE',  ( 1.000000000000000000, 0.000000000000000000, 0.000000000000000000 ) ) ;
#33 = EDGE_CURVE ( 'NONE', #54, #295, #132, .T. ) ;
#34 = DIRECTION ( 'NONE',  ( -1.000000000000000000, 8.673617573754496470E-17, 0.000000000000000000 ) ) ;
#35 = FACE_OUTER_BOUND ( 'NONE', #299, .T. ) ;
#36 = PLANE ( 'NONE',  #62 ) ;
#37 = DIRECTION ( 'NONE',  ( 0.000000000000000000, 1.000000000000000000, 0.000000000000000000 ) ) ;
#38 = DIRECTION ( 'NONE',  ( 0.000000000000000000, 1.000000000000000000, 0.000000000000000000 ) ) ;
#39 = COLOUR_RGB ( '',0.7921568627450980005, 0.8196078431372548767, 0.9333333333333333481 ) ;
#40 = EDGE_CURVE ( 'NONE', #176, #150, #81, .T. ) ;
#41 = FACE_OUTER_BOUND ( 'NONE', #322, .T. ) ;
#42 = CARTESIAN_POINT ( 'NONE',  ( -39.99999910593032837, 50.00000074505806680, 14.99999966472387314 ) ) ;
#43 = LINE ( 'NONE', #237, #108 ) ;
#44 = DIRECTION ( 'NONE',  ( 1.000000000000000000, -8.673617573754496470E-17, 0.000000000000000000 ) ) ;
#45 = VERTEX_POINT ( 'NONE', #309 ) ;
#46 = APPLICATION_PROTOCOL_DEFINITION ( 'draft international standard', 'automotive_design', 1998, #85 ) ;
#47 = EDGE_LOOP ( 'NONE', ( #123, #124, #26, #103 ) ) ;
#48 = ORIENTED_EDGE ( 'NONE', *, *, #304, .F. ) ;
#49 = ORIENTED_EDGE ( 'NONE', *, *, #325, .F. ) ;
#50 = ORIENTED_EDGE ( 'NONE', *, *, #33, .F. ) ;
#51 = VECTOR ( 'NONE', #111, 1000.000000000000000 ) ;
#52 = LINE ( 'NONE', #306, #25 ) ;
#53 = PRODUCT_RELATED_PRODUCT_CATEGORY ( 'part', '', ( #231 ) ) ;
#54 = VERTEX_POINT ( 'NONE', #230 ) ;
#55 = LINE ( 'NONE', #254, #164 ) ;
#56 = FACE_OUTER_BOUND ( 'NONE', #129, .T. ) ;
#57 = EDGE_CURVE ( 'NONE', #222, #28, #59, .T. ) ;
#58 = MECHANICAL_DESIGN_GEOMETRIC_PRESENTATION_REPRESENTATION (  '', ( #205 ), #311 ) ;
#59 = LINE ( 'NONE', #3, #203 ) ;
#60 = DIRECTION ( 'NONE',  ( -1.000000000000000000, -9.130123772587584813E-17, 0.000000000000000000 ) ) ;
#61 = DIRECTION ( 'NONE',  ( 0.000000000000000000, 0.000000000000000000, -1.000000000000000000 ) ) ;
#62 = AXIS2_PLACEMENT_3D ( 'NONE', #138, #89, #210 ) ;
#63 = DIRECTION ( 'NONE',  ( 0.000000000000000000, 0.000000000000000000, -1.000000000000000000 ) ) ;
#64 = CARTESIAN_POINT ( 'NONE',  ( -39.99999910593032837, -50.00000074505805969, -14.99999966472387314 ) ) ;
#65 = VECTOR ( 'NONE', #80, 1000.000000000000000 ) ;
#66 = CARTESIAN_POINT ( 'NONE',  ( -37.99999910593032837, 48.00000074505805259, -12.50000033527612686 ) ) ;
#67 = FACE_OUTER_BOUND ( 'NONE', #303, .T. ) ;
#68 = VECTOR ( 'NONE', #312, 1000.000000000000000 ) ;
#69 = CARTESIAN_POINT ( 'NONE',  ( 37.99999910593032837, -48.00000074505805969, -12.50000033527612686 ) ) ;
#70 = LINE ( 'NONE', #209, #196 ) ;
#71 = ORIENTED_EDGE ( 'NONE', *, *, #141, .F. ) ;
#72 =( LENGTH_UNIT ( ) NAMED_UNIT ( * ) SI_UNIT ( .MILLI., .METRE. ) );
#73 = ORIENTED_EDGE ( 'NONE', *, *, #258, .T. ) ;
#74 = ORIENTED_EDGE ( 'NONE', *, *, #232, .T. ) ;
#75 = ORIENTED_EDGE ( 'NONE', *, *, #147, .T. ) ;
#76 = APPLICATION_CONTEXT ( 'automotive_design' ) ;
#77 = ORIENTED_EDGE ( 'NONE', *, *, #40, .T. ) ;
#78 = PRODUCT_DEFINITION ( 'æœ', '', #27, #125 ) ;
#79 = CARTESIAN_POINT ( 'NONE',  ( -37.99999910593032837, 48.00000074505805259, 14.99999966472387314 ) ) ;
#80 = DIRECTION ( 'NONE',  ( 0.000000000000000000, 0.000000000000000000, 1.000000000000000000 ) ) ;
#81 = LINE ( 'NONE', #307, #51 ) ;
#82 = FACE_OUTER_BOUND ( 'NONE', #329, .T. ) ;
#83 = AXIS2_PLACEMENT_3D ( 'NONE', #186, #169, #137 ) ;
#84 = CARTESIAN_POINT ( 'NONE',  ( 39.99999910593032837, 50.00000074505805969, 14.99999966472387314 ) ) ;
#85 = APPLICATION_CONTEXT ( 'automotive_design' ) ;
#86 = LINE ( 'NONE', #180, #292 ) ;
#87 = ADVANCED_FACE ( 'NONE', ( #56 ), #113, .F. ) ;
#88 = VERTEX_POINT ( 'NONE', #181 ) ;
#89 = DIRECTION ( 'NONE',  ( 0.000000000000000000, 0.000000000000000000, 1.000000000000000000 ) ) ;
#90 = ADVANCED_FACE ( 'NONE', ( #82 ), #279, .T. ) ;
#91 = DIRECTION ( 'NONE',  ( 1.000000000000000000, -0.000000000000000000, 0.000000000000000000 ) ) ;
#92 = ORIENTED_EDGE ( 'NONE', *, *, #275, .T. ) ;
#93 = CARTESIAN_POINT ( 'NONE',  ( 39.99999910593032837, -50.00000074505806680, -14.99999966472387314 ) ) ;
#94 = FACE_OUTER_BOUND ( 'NONE', #47, .T. ) ;
#95 = DIRECTION ( 'NONE',  ( -0.000000000000000000, -0.000000000000000000, 1.000000000000000000 ) ) ;
#96 = CARTESIAN_POINT ( 'NONE',  ( -37.99999910593031416, -48.00000074505805969, -12.50000033527612686 ) ) ;
#97 = LINE ( 'NONE', #66, #247 ) ;
#98 = VERTEX_POINT ( 'NONE', #130 ) ;
#99 = ORIENTED_EDGE ( 'NONE', *, *, #275, .F. ) ;
#100 = ORIENTED_EDGE ( 'NONE', *, *, #156, .F. ) ;
#101 = ORIENTED_EDGE ( 'NONE', *, *, #33, .T. ) ;
#102 = AXIS2_PLACEMENT_3D ( 'NONE', #211, #91, #61 ) ;
#103 = ORIENTED_EDGE ( 'NONE', *, *, #223, .T. ) ;
#104 = EDGE_CURVE ( 'NONE', #172, #272, #134, .T. ) ;
#105 = EDGE_CURVE ( 'NONE', #150, #45, #31, .T. ) ;
#106 = ORIENTED_EDGE ( 'NONE', *, *, #57, .T. ) ;
#107 = CARTESIAN_POINT ( 'NONE',  ( -39.99999910593032837, -50.00000074505805969, 14.99999966472387314 ) ) ;
#108 = VECTOR ( 'NONE', #119, 1000.000000000000000 ) ;
#109 = DIRECTION ( 'NONE',  ( 0.000000000000000000, 0.000000000000000000, 1.000000000000000000 ) ) ;
#110 = VECTOR ( 'NONE', #146, 1000.000000000000000 ) ;
#111 = DIRECTION ( 'NONE',  ( 0.000000000000000000, 0.000000000000000000, 1.000000000000000000 ) ) ;
#112 = AXIS2_PLACEMENT_3D ( 'NONE', #117, #290, #12 ) ;
#113 = PLANE ( 'NONE',  #229 ) ;
#114 = LINE ( 'NONE', #264, #9 ) ;
#115 = EDGE_LOOP ( 'NONE', ( #148, #99, #271, #277 ) ) ;
#116 = PLANE ( 'NONE',  #83 ) ;
#117 = CARTESIAN_POINT ( 'NONE',  ( 0.000000000000000000, 0.000000000000000000, -14.99999966472387314 ) ) ;
#118 = FILL_AREA_STYLE ('',( #16 ) ) ;
#119 = DIRECTION ( 'NONE',  ( -1.000000000000000000, 8.673617573754496470E-17, 0.000000000000000000 ) ) ;
#120 = CARTESIAN_POINT ( 'NONE',  ( -37.99999910593032837, 48.00000074505805259, -12.50000033527612686 ) ) ;
#121 = ORIENTED_EDGE ( 'NONE', *, *, #104, .T. ) ;
#122 = ORIENTED_EDGE ( 'NONE', *, *, #133, .F. ) ;
#123 = ORIENTED_EDGE ( 'NONE', *, *, #105, .F. ) ;
#124 = ORIENTED_EDGE ( 'NONE', *, *, #40, .F. ) ;
#125 = PRODUCT_DEFINITION_CONTEXT ( 'detailed design', #76, 'design' ) ;
#126 = ADVANCED_FACE ( 'NONE', ( #257 ), #184, .F. ) ;
#127 = ORIENTED_EDGE ( 'NONE', *, *, #198, .F. ) ;
#128 = PRESENTATION_LAYER_ASSIGNMENT (  '', '', ( #205 ) ) ;
#129 = EDGE_LOOP ( 'NONE', ( #301, #71, #127, #305 ) ) ;
#130 = CARTESIAN_POINT ( 'NONE',  ( 37.99999910593032837, -48.00000074505805969, -12.50000033527612686 ) ) ;
#131 = FACE_OUTER_BOUND ( 'NONE', #115, .T. ) ;
#132 = LINE ( 'NONE', #153, #160 ) ;
#133 = EDGE_CURVE ( 'NONE', #295, #22, #280, .T. ) ;
#134 = LINE ( 'NONE', #310, #65 ) ;
#135 = AXIS2_PLACEMENT_3D ( 'NONE', #64, #166, #44 ) ;
#136 = LINE ( 'NONE', #162, #252 ) ;
#137 = DIRECTION ( 'NONE',  ( 0.000000000000000000, 0.000000000000000000, 1.000000000000000000 ) ) ;
#138 = CARTESIAN_POINT ( 'NONE',  ( 0.000000000000000000, 0.000000000000000000, 14.99999966472387314 ) ) ;
#139 = PLANE ( 'NONE',  #102 ) ;
#140 = LINE ( 'NONE', #208, #4 ) ;
#141 = EDGE_CURVE ( 'NONE', #250, #88, #86, .T. ) ;
#142 = SURFACE_SIDE_STYLE ('',( #213 ) ) ;
#143 = ORIENTED_EDGE ( 'NONE', *, *, #5, .F. ) ;
#144 = ORIENTED_EDGE ( 'NONE', *, *, #319, .T. ) ;
#145 = ORIENTED_EDGE ( 'NONE', *, *, #225, .T. ) ;
#146 = DIRECTION ( 'NONE',  ( 1.445602874208629518E-16, -1.000000000000000000, 0.000000000000000000 ) ) ;
#147 = EDGE_CURVE ( 'NONE', #98, #54, #55, .T. ) ;
#148 = ORIENTED_EDGE ( 'NONE', *, *, #156, .T. ) ;
#149 = AXIS2_PLACEMENT_3D ( 'NONE', #206, #204, #224 ) ;
#150 = VERTEX_POINT ( 'NONE', #107 ) ;
#151 = AXIS2_PLACEMENT_3D ( 'NONE', #284, #154, #60 ) ;
#152 = CARTESIAN_POINT ( 'NONE',  ( -37.99999910593032837, 48.00000074505805259, 14.99999966472387314 ) ) ;
#153 = CARTESIAN_POINT ( 'NONE',  ( 37.99999910593032837, 48.00000074505805969, -12.50000033527612686 ) ) ;
#154 = DIRECTION ( 'NONE',  ( -9.130123772587584813E-17, 1.000000000000000000, 0.000000000000000000 ) ) ;
#155 = DIRECTION ( 'NONE',  ( -0.000000000000000000, -0.000000000000000000, 1.000000000000000000 ) ) ;
#156 = EDGE_CURVE ( 'NONE', #88, #24, #199, .T. ) ;
#157 = ADVANCED_FACE ( 'NONE', ( #131 ), #226, .F. ) ;
#158 = DIRECTION ( 'NONE',  ( 1.000000000000000000, -8.673617573754496470E-17, 0.000000000000000000 ) ) ;
#159 = DIRECTION ( 'NONE',  ( 0.000000000000000000, -0.000000000000000000, -1.000000000000000000 ) ) ;
#160 = VECTOR ( 'NONE', #155, 1000.000000000000000 ) ;
#161 = ORIENTED_EDGE ( 'NONE', *, *, #147, .F. ) ;
#162 = CARTESIAN_POINT ( 'NONE',  ( -37.99999910593031416, -48.00000074505805969, -12.50000033527612686 ) ) ;
#163 = DIRECTION ( 'NONE',  ( 0.000000000000000000, 0.000000000000000000, 1.000000000000000000 ) ) ;
#164 = VECTOR ( 'NONE', #2, 1000.000000000000000 ) ;
#165 = DIRECTION ( 'NONE',  ( -1.000000000000000000, 8.673617573754496470E-17, 0.000000000000000000 ) ) ;
#166 = DIRECTION ( 'NONE',  ( -8.673617573754496470E-17, -1.000000000000000000, 0.000000000000000000 ) ) ;
#167 = EDGE_CURVE ( 'NONE', #172, #176, #70, .T. ) ;
#168 = FACE_BOUND ( 'NONE', #217, .T. ) ;
#169 = DIRECTION ( 'NONE',  ( -1.000000000000000000, 0.000000000000000000, 0.000000000000000000 ) ) ;
#170 = VERTEX_POINT ( 'NONE', #318 ) ;
#171 = PLANE ( 'NONE',  #200 ) ;
#172 = VERTEX_POINT ( 'NONE', #291 ) ;
#173 = ORIENTED_EDGE ( 'NONE', *, *, #183, .T. ) ;
#174 = ADVANCED_FACE ( 'NONE', ( #314 ), #116, .T. ) ;
#175 = SHAPE_DEFINITION_REPRESENTATION ( #179, #327 ) ;
#176 = VERTEX_POINT ( 'NONE', #238 ) ;
#177 = CARTESIAN_POINT ( 'NONE',  ( -39.99999910593032837, -50.00000074505805969, -14.99999966472387314 ) ) ;
#178 = DIRECTION ( 'NONE',  ( -1.000000000000000000, -9.130123772587586046E-17, 0.000000000000000000 ) ) ;
#179 = PRODUCT_DEFINITION_SHAPE ( 'NONE', 'NONE',  #78 ) ;
#180 = CARTESIAN_POINT ( 'NONE',  ( -37.99999910593031416, -48.00000074505805969, -12.50000033527612686 ) ) ;
#181 = CARTESIAN_POINT ( 'NONE',  ( -37.99999910593031416, -48.00000074505805969, 14.99999966472387314 ) ) ;
#182 = CARTESIAN_POINT ( 'NONE',  ( -39.99999910593032837, -50.00000074505805969, 14.99999966472387314 ) ) ;
#183 = EDGE_CURVE ( 'NONE', #272, #150, #260, .T. ) ;
#184 = PLANE ( 'NONE',  #151 ) ;
#185 = DIRECTION ( 'NONE',  ( -1.000000000000000000, -1.445602874208629518E-16, 0.000000000000000000 ) ) ;
#186 = CARTESIAN_POINT ( 'NONE',  ( -39.99999910593032837, 50.00000074505806680, -14.99999966472387314 ) ) ;
#187 = CLOSED_SHELL ( 'NONE', ( #174, #30, #283, #201, #236, #285, #189, #157, #87, #126, #90 ) ) ;
#188 = LINE ( 'NONE', #294, #11 ) ;
#189 = ADVANCED_FACE ( 'NONE', ( #67 ), #139, .F. ) ;
#190 = DIRECTION ( 'NONE',  ( 0.000000000000000000, -1.000000000000000000, 0.000000000000000000 ) ) ;
#191 =( NAMED_UNIT ( * ) PLANE_ANGLE_UNIT ( ) SI_UNIT ( $, .RADIAN. ) );
#192 = EDGE_LOOP ( 'NONE', ( #244, #326, #323, #101 ) ) ;
#193 = LINE ( 'NONE', #79, #110 ) ;
#194 = ORIENTED_EDGE ( 'NONE', *, *, #15, .F. ) ;
#195 = ORIENTED_EDGE ( 'NONE', *, *, #198, .T. ) ;
#196 = VECTOR ( 'NONE', #190, 1000.000000000000000 ) ;
#197 = ORIENTED_EDGE ( 'NONE', *, *, #104, .F. ) ;
#198 = EDGE_CURVE ( 'NONE', #29, #250, #215, .T. ) ;
#199 = LINE ( 'NONE', #308, #235 ) ;
#200 = AXIS2_PLACEMENT_3D ( 'NONE', #93, #17, #63 ) ;
#201 = ADVANCED_FACE ( 'NONE', ( #94 ), #321, .T. ) ;
#202 = DIRECTION ( 'NONE',  ( 1.445602874208629518E-16, -1.000000000000000000, 0.000000000000000000 ) ) ;
#203 = VECTOR ( 'NONE', #109, 1000.000000000000000 ) ;
#204 = DIRECTION ( 'NONE',  ( 0.000000000000000000, -0.000000000000000000, 1.000000000000000000 ) ) ;
#205 = STYLED_ITEM ( 'NONE', ( #18 ), #233 ) ;
#206 = CARTESIAN_POINT ( 'NONE',  ( 0.000000000000000000, 0.000000000000000000, -12.50000033527612686 ) ) ;
#207 = ORIENTED_EDGE ( 'NONE', *, *, #304, .T. ) ;
#208 = CARTESIAN_POINT ( 'NONE',  ( 37.99999910593032837, -48.00000074505805969, 14.99999966472387314 ) ) ;
#209 = CARTESIAN_POINT ( 'NONE',  ( -39.99999910593032837, 50.00000074505806680, -14.99999966472387314 ) ) ;
#210 = DIRECTION ( 'NONE',  ( 1.000000000000000000, 0.000000000000000000, -0.000000000000000000 ) ) ;
#211 = CARTESIAN_POINT ( 'NONE',  ( 37.99999910593032837, -48.00000074505805969, -12.50000033527612686 ) ) ;
#212 = DIRECTION ( 'NONE',  ( 1.000000000000000000, 0.000000000000000000, 0.000000000000000000 ) ) ;
#213 = SURFACE_STYLE_FILL_AREA ( #118 ) ;
#214 = CARTESIAN_POINT ( 'NONE',  ( 39.99999910593032837, 50.00000074505805969, 14.99999966472387314 ) ) ;
#215 = LINE ( 'NONE', #120, #281 ) ;
#216 = ORIENTED_EDGE ( 'NONE', *, *, #21, .T. ) ;
#217 = EDGE_LOOP ( 'NONE', ( #48, #100, #143, #122 ) ) ;
#218 = ORIENTED_EDGE ( 'NONE', *, *, #223, .F. ) ;
#219 = ORIENTED_EDGE ( 'NONE', *, *, #225, .F. ) ;
#220 = ORIENTED_EDGE ( 'NONE', *, *, #232, .F. ) ;
#221 = VECTOR ( 'NONE', #13, 1000.000000000000000 ) ;
#222 = VERTEX_POINT ( 'NONE', #288 ) ;
#223 = EDGE_CURVE ( 'NONE', #170, #45, #188, .T. ) ;
#224 = DIRECTION ( 'NONE',  ( 1.000000000000000000, 0.000000000000000000, -0.000000000000000000 ) ) ;
#225 = EDGE_CURVE ( 'NONE', #45, #28, #234, .T. ) ;
#226 = PLANE ( 'NONE',  #263 ) ;
#227 =( GEOMETRIC_REPRESENTATION_CONTEXT ( 3 ) GLOBAL_UNCERTAINTY_ASSIGNED_CONTEXT ( ( #248 ) ) GLOBAL_UNIT_ASSIGNED_CONTEXT ( ( #320, #191, #239 ) ) REPRESENTATION_CONTEXT ( 'NONE', 'WORKASPACE' ) );
#228 = CARTESIAN_POINT ( 'NONE',  ( -37.99999910593032837, 48.00000074505805259, -12.50000033527612686 ) ) ;
#229 = AXIS2_PLACEMENT_3D ( 'NONE', #228, #185, #202 ) ;
#230 = CARTESIAN_POINT ( 'NONE',  ( 37.99999910593032837, 48.00000074505805969, -12.50000033527612686 ) ) ;
#231 = PRODUCT ( 'bin-\X2\9ed18272\X0\2', 'bin-\X2\9ed18272\X0\2', '', ( #297 ) ) ;
#232 = EDGE_CURVE ( 'NONE', #170, #222, #114, .T. ) ;
#233 = MANIFOLD_SOLID_BREP ( '\X2\52079664\X0\-\X2\62c94f38\X0\1', #187 ) ;
#234 = LINE ( 'NONE', #261, #328 ) ;
#235 = VECTOR ( 'NONE', #32, 1000.000000000000000 ) ;
#236 = ADVANCED_FACE ( 'NONE', ( #14 ), #317, .F. ) ;
#237 = CARTESIAN_POINT ( 'NONE',  ( 39.99999910593032837, 50.00000074505805969, -14.99999966472387314 ) ) ;
#238 = CARTESIAN_POINT ( 'NONE',  ( -39.99999910593032837, -50.00000074505805969, -14.99999966472387314 ) ) ;
#239 =( NAMED_UNIT ( * ) SI_UNIT ( $, .STERADIAN. ) SOLID_ANGLE_UNIT ( ) );
#240 = CARTESIAN_POINT ( 'NONE',  ( 0.000000000000000000, 0.000000000000000000, 0.000000000000000000 ) ) ;
#241 = FACE_OUTER_BOUND ( 'NONE', #1, .T. ) ;
#242 = SURFACE_STYLE_USAGE ( .BOTH. , #142 ) ;
#243 = ORIENTED_EDGE ( 'NONE', *, *, #325, .T. ) ;
#244 = ORIENTED_EDGE ( 'NONE', *, *, #133, .T. ) ;
#245 = ORIENTED_EDGE ( 'NONE', *, *, #167, .T. ) ;
#246 = LINE ( 'NONE', #177, #289 ) ;
#247 = VECTOR ( 'NONE', #313, 1000.000000000000000 ) ;
#248 = UNCERTAINTY_MEASURE_WITH_UNIT (LENGTH_MEASURE( 1.000000000000000082E-05 ), #320, 'distance_accuracy_value', 'NONE');
#249 = VECTOR ( 'NONE', #158, 1000.000000000000000 ) ;
#250 = VERTEX_POINT ( 'NONE', #259 ) ;
#251 = EDGE_LOOP ( 'NONE', ( #20, #49, #220, #194 ) ) ;
#252 = VECTOR ( 'NONE', #212, 1000.000000000000000 ) ;
#253 = CARTESIAN_POINT ( 'NONE',  ( 37.99999910593032837, -48.00000074505805969, 14.99999966472387314 ) ) ;
#254 = CARTESIAN_POINT ( 'NONE',  ( 37.99999910593032837, -48.00000074505805969, -12.50000033527612686 ) ) ;
#255 = CARTESIAN_POINT ( 'NONE',  ( 39.99999910593032837, 50.00000074505805969, -14.99999966472387314 ) ) ;
#256 = DIRECTION ( 'NONE',  ( 8.673617573754496470E-17, 1.000000000000000000, -0.000000000000000000 ) ) ;
#257 = FACE_OUTER_BOUND ( 'NONE', #192, .T. ) ;
#258 = EDGE_CURVE ( 'NONE', #250, #98, #136, .T. ) ;
#259 = CARTESIAN_POINT ( 'NONE',  ( -37.99999910593031416, -48.00000074505805969, -12.50000033527612686 ) ) ;
#260 = LINE ( 'NONE', #42, #221 ) ;
#261 = CARTESIAN_POINT ( 'NONE',  ( 39.99999910593032837, -50.00000074505806680, 14.99999966472387314 ) ) ;
#262 = AXIS2_PLACEMENT_3D ( 'NONE', #240, #23, #269 ) ;
#263 = AXIS2_PLACEMENT_3D ( 'NONE', #96, #266, #159 ) ;
#264 = CARTESIAN_POINT ( 'NONE',  ( 39.99999910593032837, -50.00000074505806680, -14.99999966472387314 ) ) ;
#265 = CARTESIAN_POINT ( 'NONE',  ( 37.99999910593032837, 48.00000074505806680, 14.99999966472387314 ) ) ;
#266 = DIRECTION ( 'NONE',  ( 0.000000000000000000, -1.000000000000000000, 0.000000000000000000 ) ) ;
#267 = ORIENTED_EDGE ( 'NONE', *, *, #57, .F. ) ;
#268 = LINE ( 'NONE', #214, #273 ) ;
#269 = DIRECTION ( 'NONE',  ( 1.000000000000000000, 0.000000000000000000, 0.000000000000000000 ) ) ;
#270 = ORIENTED_EDGE ( 'NONE', *, *, #105, .T. ) ;
#271 = ORIENTED_EDGE ( 'NONE', *, *, #258, .F. ) ;
#272 = VERTEX_POINT ( 'NONE', #315 ) ;
#273 = VECTOR ( 'NONE', #165, 1000.000000000000000 ) ;
#274 = UNCERTAINTY_MEASURE_WITH_UNIT (LENGTH_MEASURE( 1.000000000000000082E-05 ), #72, 'distance_accuracy_value', 'NONE');
#275 = EDGE_CURVE ( 'NONE', #98, #24, #293, .T. ) ;
#276 = DIRECTION ( 'NONE',  ( 1.000000000000000000, -8.673617573754496470E-17, 0.000000000000000000 ) ) ;
#277 = ORIENTED_EDGE ( 'NONE', *, *, #141, .T. ) ;
#278 = DIRECTION ( 'NONE',  ( -0.000000000000000000, -0.000000000000000000, 1.000000000000000000 ) ) ;
#279 = PLANE ( 'NONE',  #149 ) ;
#280 = LINE ( 'NONE', #8, #68 ) ;
#281 = VECTOR ( 'NONE', #316, 1000.000000000000000 ) ;
#282 = PLANE ( 'NONE',  #7 ) ;
#283 = ADVANCED_FACE ( 'NONE', ( #241 ), #171, .T. ) ;
#284 = CARTESIAN_POINT ( 'NONE',  ( 37.99999910593032837, 48.00000074505805969, -12.50000033527612686 ) ) ;
#285 = ADVANCED_FACE ( 'NONE', ( #168, #41 ), #36, .T. ) ;
#286 =( NAMED_UNIT ( * ) PLANE_ANGLE_UNIT ( ) SI_UNIT ( $, .RADIAN. ) );
#287 = VECTOR ( 'NONE', #95, 1000.000000000000000 ) ;
#288 = CARTESIAN_POINT ( 'NONE',  ( 39.99999910593032837, 50.00000074505805969, -14.99999966472387314 ) ) ;
#289 = VECTOR ( 'NONE', #276, 1000.000000000000000 ) ;
#290 = DIRECTION ( 'NONE',  ( 0.000000000000000000, 0.000000000000000000, 1.000000000000000000 ) ) ;
#291 = CARTESIAN_POINT ( 'NONE',  ( -39.99999910593032837, 50.00000074505806680, -14.99999966472387314 ) ) ;
#292 = VECTOR ( 'NONE', #278, 1000.000000000000000 ) ;
#293 = LINE ( 'NONE', #69, #287 ) ;
#294 = CARTESIAN_POINT ( 'NONE',  ( 39.99999910593032837, -50.00000074505806680, -14.99999966472387314 ) ) ;
#295 = VERTEX_POINT ( 'NONE', #265 ) ;
#296 = EDGE_CURVE ( 'NONE', #29, #22, #97, .T. ) ;
#297 = PRODUCT_CONTEXT ( 'NONE', #85, 'mechanical' ) ;
#298 = DIRECTION ( 'NONE',  ( 0.000000000000000000, 1.000000000000000000, 0.000000000000000000 ) ) ;
#299 = EDGE_LOOP ( 'NONE', ( #324, #267, #243, #121 ) ) ;
#300 = ORIENTED_EDGE ( 'NONE', *, *, #183, .F. ) ;
#301 = ORIENTED_EDGE ( 'NONE', *, *, #5, .T. ) ;
#302 = APPLICATION_PROTOCOL_DEFINITION ( 'draft international standard', 'automotive_design', 1998, #76 ) ;
#303 = EDGE_LOOP ( 'NONE', ( #207, #50, #161, #92 ) ) ;
#304 = EDGE_CURVE ( 'NONE', #24, #295, #140, .T. ) ;
#305 = ORIENTED_EDGE ( 'NONE', *, *, #296, .T. ) ;
#306 = CARTESIAN_POINT ( 'NONE',  ( 37.99999910593032837, 48.00000074505805969, -12.50000033527612686 ) ) ;
#307 = CARTESIAN_POINT ( 'NONE',  ( -39.99999910593032837, -50.00000074505805969, -14.99999966472387314 ) ) ;
#308 = CARTESIAN_POINT ( 'NONE',  ( -37.99999910593031416, -48.00000074505805969, 14.99999966472387314 ) ) ;
#309 = CARTESIAN_POINT ( 'NONE',  ( 39.99999910593032837, -50.00000074505806680, 14.99999966472387314 ) ) ;
#310 = CARTESIAN_POINT ( 'NONE',  ( -39.99999910593032837, 50.00000074505806680, -14.99999966472387314 ) ) ;
#311 =( GEOMETRIC_REPRESENTATION_CONTEXT ( 3 ) GLOBAL_UNCERTAINTY_ASSIGNED_CONTEXT ( ( #274 ) ) GLOBAL_UNIT_ASSIGNED_CONTEXT ( ( #72, #286, #10 ) ) REPRESENTATION_CONTEXT ( 'NONE', 'WORKASPACE' ) );
#312 = DIRECTION ( 'NONE',  ( -1.000000000000000000, -9.130123772587586046E-17, 0.000000000000000000 ) ) ;
#313 = DIRECTION ( 'NONE',  ( -0.000000000000000000, -0.000000000000000000, 1.000000000000000000 ) ) ;
#314 = FACE_OUTER_BOUND ( 'NONE', #19, .T. ) ;
#315 = CARTESIAN_POINT ( 'NONE',  ( -39.99999910593032837, 50.00000074505806680, 14.99999966472387314 ) ) ;
#316 = DIRECTION ( 'NONE',  ( 1.445602874208629518E-16, -1.000000000000000000, 0.000000000000000000 ) ) ;
#317 = PLANE ( 'NONE',  #112 ) ;
#318 = CARTESIAN_POINT ( 'NONE',  ( 39.99999910593032837, -50.00000074505806680, -14.99999966472387314 ) ) ;
#319 = EDGE_CURVE ( 'NONE', #28, #272, #268, .T. ) ;
#320 =( LENGTH_UNIT ( ) NAMED_UNIT ( * ) SI_UNIT ( .MILLI., .METRE. ) );
#321 = PLANE ( 'NONE',  #135 ) ;
#322 = EDGE_LOOP ( 'NONE', ( #173, #270, #145, #144 ) ) ;
#323 = ORIENTED_EDGE ( 'NONE', *, *, #21, .F. ) ;
#324 = ORIENTED_EDGE ( 'NONE', *, *, #319, .F. ) ;
#325 = EDGE_CURVE ( 'NONE', #222, #172, #43, .T. ) ;
#326 = ORIENTED_EDGE ( 'NONE', *, *, #296, .F. ) ;
#327 = ADVANCED_BREP_SHAPE_REPRESENTATION ( 'bin-\X2\9ed18272\X0\2', ( #233, #262 ), #227 ) ;
#328 = VECTOR ( 'NONE', #38, 1000.000000000000000 ) ;
#329 = EDGE_LOOP ( 'NONE', ( #75, #216, #195, #73 ) ) ;
ENDSEC;
END-ISO-10303-21;
