ISO-10303-21;
HEADER;
FILE_DESCRIPTION (( 'STEP AP214' ),
    '1' );
FILE_NAME ('cube_4_#b74e4d.STEP',
    '2026-07-25T03:13:02',
    ( '' ),
    ( '' ),
    'SwSTEP 2.0',
    'SolidWorks 2025',
    '' );
FILE_SCHEMA (( 'AUTOMOTIVE_DESIGN' ));
ENDSEC;

DATA;
#1 = LINE ( 'NONE', #179, #22 ) ;
#2 = VECTOR ( 'NONE', #65, 1000.000000000000000 ) ;
#3 = ADVANCED_FACE ( 'NONE', ( #32 ), #172, .F. ) ;
#4 = ORIENTED_EDGE ( 'NONE', *, *, #124, .F. ) ;
#5 = ORIENTED_EDGE ( 'NONE', *, *, #156, .F. ) ;
#6 = CARTESIAN_POINT ( 'NONE',  ( -20.00000000000000000, 20.00000000000000000, 40.00000000000000000 ) ) ;
#7 = CARTESIAN_POINT ( 'NONE',  ( 20.00000000000000000, -20.00000000000000000, 0.000000000000000000 ) ) ;
#8 = STYLED_ITEM ( 'NONE', ( #45 ), #29 ) ;
#9 = EDGE_LOOP ( 'NONE', ( #134, #26, #40, #148 ) ) ;
#10 = APPLICATION_CONTEXT ( 'automotive_design' ) ;
#11 = EDGE_CURVE ( 'NONE', #96, #42, #55, .T. ) ;
#12 = DIRECTION ( 'NONE',  ( 0.000000000000000000, 1.000000000000000000, 0.000000000000000000 ) ) ;
#13 = AXIS2_PLACEMENT_3D ( 'NONE', #20, #80, #19 ) ;
#14 = SURFACE_SIDE_STYLE ('',( #139 ) ) ;
#15 = COLOUR_RGB ( '',0.7921568627450980005, 0.8196078431372548767, 0.9333333333333333481 ) ;
#16 = CARTESIAN_POINT ( 'NONE',  ( -20.00000000000000000, -20.00000000000000000, 40.00000000000000000 ) ) ;
#17 = LINE ( 'NONE', #75, #138 ) ;
#18 = ADVANCED_FACE ( 'NONE', ( #185 ), #74, .F. ) ;
#19 = DIRECTION ( 'NONE',  ( -1.000000000000000000, 0.000000000000000000, -0.000000000000000000 ) ) ;
#20 = CARTESIAN_POINT ( 'NONE',  ( 0.000000000000000000, 0.000000000000000000, 0.000000000000000000 ) ) ;
#21 = CARTESIAN_POINT ( 'NONE',  ( 0.000000000000000000, 0.000000000000000000, 0.000000000000000000 ) ) ;
#22 = VECTOR ( 'NONE', #132, 1000.000000000000000 ) ;
#23 = LINE ( 'NONE', #6, #2 ) ;
#24 = AXIS2_PLACEMENT_3D ( 'NONE', #16, #115, #89 ) ;
#25 = CARTESIAN_POINT ( 'NONE',  ( -20.00000000000000000, -20.00000000000000000, 40.00000000000000000 ) ) ;
#26 = ORIENTED_EDGE ( 'NONE', *, *, #142, .F. ) ;
#27 = ORIENTED_EDGE ( 'NONE', *, *, #73, .F. ) ;
#28 = ORIENTED_EDGE ( 'NONE', *, *, #100, .F. ) ;
#29 = MANIFOLD_SOLID_BREP ( '\X2\51f853f0\X0\-\X2\62c94f38\X0\1', #183 ) ;
#30 = PRESENTATION_LAYER_ASSIGNMENT (  '', '', ( #8 ) ) ;
#31 = LINE ( 'NONE', #112, #77 ) ;
#32 = FACE_OUTER_BOUND ( 'NONE', #9, .T. ) ;
#33 = LINE ( 'NONE', #91, #113 ) ;
#34 = FACE_OUTER_BOUND ( 'NONE', #151, .T. ) ;
#35 = CARTESIAN_POINT ( 'NONE',  ( 20.00000000000000000, 20.00000000000000000, 40.00000000000000000 ) ) ;
#36 = CARTESIAN_POINT ( 'NONE',  ( -20.00000000000000000, -20.00000000000000000, 40.00000000000000000 ) ) ;
#37 = DIRECTION ( 'NONE',  ( 0.000000000000000000, -1.000000000000000000, 0.000000000000000000 ) ) ;
#38 = ORIENTED_EDGE ( 'NONE', *, *, #137, .T. ) ;
#39 = DIRECTION ( 'NONE',  ( -0.000000000000000000, -1.000000000000000000, -0.000000000000000000 ) ) ;
#40 = ORIENTED_EDGE ( 'NONE', *, *, #184, .F. ) ;
#41 = ORIENTED_EDGE ( 'NONE', *, *, #78, .T. ) ;
#42 = VERTEX_POINT ( 'NONE', #56 ) ;
#43 = VECTOR ( 'NONE', #160, 1000.000000000000000 ) ;
#44 = EDGE_LOOP ( 'NONE', ( #99, #27, #5, #41 ) ) ;
#45 = PRESENTATION_STYLE_ASSIGNMENT (( #158 ) ) ;
#46 = ADVANCED_FACE ( 'NONE', ( #59 ), #70, .F. ) ;
#47 = CARTESIAN_POINT ( 'NONE',  ( -20.00000000000000000, -20.00000000000000000, 40.00000000000000000 ) ) ;
#48 =( LENGTH_UNIT ( ) NAMED_UNIT ( * ) SI_UNIT ( .MILLI., .METRE. ) );
#49 = FACE_OUTER_BOUND ( 'NONE', #136, .T. ) ;
#50 = AXIS2_PLACEMENT_3D ( 'NONE', #111, #169, #58 ) ;
#51 = ORIENTED_EDGE ( 'NONE', *, *, #11, .T. ) ;
#52 = PRODUCT_CONTEXT ( 'NONE', #10, 'mechanical' ) ;
#53 = FILL_AREA_STYLE ('',( #110 ) ) ;
#54 = ADVANCED_BREP_SHAPE_REPRESENTATION ( 'cube_4_#b74e4d', ( #29, #117 ), #155 ) ;
#55 = LINE ( 'NONE', #87, #125 ) ;
#56 = CARTESIAN_POINT ( 'NONE',  ( 20.00000000000000000, 20.00000000000000000, 40.00000000000000000 ) ) ;
#57 = EDGE_CURVE ( 'NONE', #98, #81, #31, .T. ) ;
#58 = DIRECTION ( 'NONE',  ( -1.000000000000000000, 0.000000000000000000, -0.000000000000000000 ) ) ;
#59 = FACE_OUTER_BOUND ( 'NONE', #67, .T. ) ;
#60 = LINE ( 'NONE', #68, #174 ) ;
#61 = APPLICATION_PROTOCOL_DEFINITION ( 'draft international standard', 'automotive_design', 1998, #10 ) ;
#62 = VECTOR ( 'NONE', #103, 1000.000000000000000 ) ;
#63 = CARTESIAN_POINT ( 'NONE',  ( -20.00000000000000000, -20.00000000000000000, 40.00000000000000000 ) ) ;
#64 = VERTEX_POINT ( 'NONE', #102 ) ;
#65 = DIRECTION ( 'NONE',  ( -1.000000000000000000, -0.000000000000000000, -0.000000000000000000 ) ) ;
#66 = EDGE_CURVE ( 'NONE', #81, #84, #33, .T. ) ;
#67 = EDGE_LOOP ( 'NONE', ( #51, #83, #167, #152 ) ) ;
#68 = CARTESIAN_POINT ( 'NONE',  ( 20.00000000000000000, -20.00000000000000000, 0.000000000000000000 ) ) ;
#69 = VECTOR ( 'NONE', #39, 1000.000000000000000 ) ;
#70 = PLANE ( 'NONE',  #50 ) ;
#71 = APPLICATION_CONTEXT ( 'automotive_design' ) ;
#72 = DIRECTION ( 'NONE',  ( 0.000000000000000000, 0.000000000000000000, -1.000000000000000000 ) ) ;
#73 = EDGE_CURVE ( 'NONE', #79, #163, #17, .T. ) ;
#74 = PLANE ( 'NONE',  #176 ) ;
#75 = CARTESIAN_POINT ( 'NONE',  ( -20.00000000000000000, 20.00000000000000000, 40.00000000000000000 ) ) ;
#76 = CARTESIAN_POINT ( 'NONE',  ( -20.00000000000000000, 20.00000000000000000, 40.00000000000000000 ) ) ;
#77 = VECTOR ( 'NONE', #171, 1000.000000000000000 ) ;
#78 = EDGE_CURVE ( 'NONE', #42, #64, #127, .T. ) ;
#79 = VERTEX_POINT ( 'NONE', #76 ) ;
#80 = DIRECTION ( 'NONE',  ( 0.000000000000000000, 0.000000000000000000, -1.000000000000000000 ) ) ;
#81 = VERTEX_POINT ( 'NONE', #128 ) ;
#82 = SHAPE_DEFINITION_REPRESENTATION ( #170, #54 ) ;
#83 = ORIENTED_EDGE ( 'NONE', *, *, #156, .T. ) ;
#84 = VERTEX_POINT ( 'NONE', #7 ) ;
#85 = PRODUCT_RELATED_PRODUCT_CATEGORY ( 'part', '', ( #101 ) ) ;
#86 = DIRECTION ( 'NONE',  ( -0.000000000000000000, -0.000000000000000000, -1.000000000000000000 ) ) ;
#87 = CARTESIAN_POINT ( 'NONE',  ( 20.00000000000000000, -20.00000000000000000, 40.00000000000000000 ) ) ;
#88 = AXIS2_PLACEMENT_3D ( 'NONE', #93, #37, #173 ) ;
#89 = DIRECTION ( 'NONE',  ( 0.000000000000000000, -0.000000000000000000, 1.000000000000000000 ) ) ;
#90 = ORIENTED_EDGE ( 'NONE', *, *, #57, .F. ) ;
#91 = CARTESIAN_POINT ( 'NONE',  ( -20.00000000000000000, -20.00000000000000000, 0.000000000000000000 ) ) ;
#92 = DIRECTION ( 'NONE',  ( 0.000000000000000000, 1.000000000000000000, 0.000000000000000000 ) ) ;
#93 = CARTESIAN_POINT ( 'NONE',  ( -20.00000000000000000, 20.00000000000000000, 40.00000000000000000 ) ) ;
#94 = ADVANCED_FACE ( 'NONE', ( #49 ), #147, .F. ) ;
#95 = LINE ( 'NONE', #97, #62 ) ;
#96 = VERTEX_POINT ( 'NONE', #105 ) ;
#97 = CARTESIAN_POINT ( 'NONE',  ( 20.00000000000000000, -20.00000000000000000, 40.00000000000000000 ) ) ;
#98 = VERTEX_POINT ( 'NONE', #25 ) ;
#99 = ORIENTED_EDGE ( 'NONE', *, *, #100, .T. ) ;
#100 = EDGE_CURVE ( 'NONE', #64, #163, #1, .T. ) ;
#101 = PRODUCT ( 'cube_4_#b74e4d', 'cube_4_#b74e4d', '', ( #52 ) ) ;
#102 = CARTESIAN_POINT ( 'NONE',  ( 20.00000000000000000, 20.00000000000000000, 0.000000000000000000 ) ) ;
#103 = DIRECTION ( 'NONE',  ( -0.000000000000000000, -0.000000000000000000, -1.000000000000000000 ) ) ;
#104 = PRODUCT_DEFINITION_CONTEXT ( 'detailed design', #71, 'design' ) ;
#105 = CARTESIAN_POINT ( 'NONE',  ( 20.00000000000000000, -20.00000000000000000, 40.00000000000000000 ) ) ;
#106 = DIRECTION ( 'NONE',  ( -1.000000000000000000, 0.000000000000000000, 0.000000000000000000 ) ) ;
#107 = ORIENTED_EDGE ( 'NONE', *, *, #66, .F. ) ;
#108 = ORIENTED_EDGE ( 'NONE', *, *, #73, .T. ) ;
#109 = ADVANCED_FACE ( 'NONE', ( #130 ), #145, .F. ) ;
#110 = FILL_AREA_STYLE_COLOUR ( '', #15 ) ;
#111 = CARTESIAN_POINT ( 'NONE',  ( 0.000000000000000000, 0.000000000000000000, 40.00000000000000000 ) ) ;
#112 = CARTESIAN_POINT ( 'NONE',  ( -20.00000000000000000, -20.00000000000000000, 40.00000000000000000 ) ) ;
#113 = VECTOR ( 'NONE', #143, 1000.000000000000000 ) ;
#114 = PRODUCT_DEFINITION ( 'ๆ', '', #165, #104 ) ;
#115 = DIRECTION ( 'NONE',  ( 0.000000000000000000, 1.000000000000000000, 0.000000000000000000 ) ) ;
#116 = DIRECTION ( 'NONE',  ( -0.000000000000000000, -1.000000000000000000, -0.000000000000000000 ) ) ;
#117 = AXIS2_PLACEMENT_3D ( 'NONE', #21, #131, #166 ) ;
#118 = UNCERTAINTY_MEASURE_WITH_UNIT (LENGTH_MEASURE( 1.000000000000000082E-05 ), #48, 'distance_accuracy_value', 'NONE');
#119 = LINE ( 'NONE', #122, #146 ) ;
#120 = EDGE_LOOP ( 'NONE', ( #126, #90, #4, #108 ) ) ;
#121 = LINE ( 'NONE', #63, #43 ) ;
#122 = CARTESIAN_POINT ( 'NONE',  ( -20.00000000000000000, -20.00000000000000000, 0.000000000000000000 ) ) ;
#123 = VECTOR ( 'NONE', #133, 1000.000000000000000 ) ;
#124 = EDGE_CURVE ( 'NONE', #79, #98, #159, .T. ) ;
#125 = VECTOR ( 'NONE', #12, 1000.000000000000000 ) ;
#126 = ORIENTED_EDGE ( 'NONE', *, *, #168, .T. ) ;
#127 = LINE ( 'NONE', #35, #123 ) ;
#128 = CARTESIAN_POINT ( 'NONE',  ( -20.00000000000000000, -20.00000000000000000, 0.000000000000000000 ) ) ;
#129 = UNCERTAINTY_MEASURE_WITH_UNIT (LENGTH_MEASURE( 1.000000000000000082E-05 ), #154, 'distance_accuracy_value', 'NONE');
#130 = FACE_OUTER_BOUND ( 'NONE', #44, .T. ) ;
#131 = DIRECTION ( 'NONE',  ( 0.000000000000000000, 0.000000000000000000, 1.000000000000000000 ) ) ;
#132 = DIRECTION ( 'NONE',  ( -1.000000000000000000, -0.000000000000000000, -0.000000000000000000 ) ) ;
#133 = DIRECTION ( 'NONE',  ( -0.000000000000000000, -0.000000000000000000, -1.000000000000000000 ) ) ;
#134 = ORIENTED_EDGE ( 'NONE', *, *, #66, .T. ) ;
#135 = MECHANICAL_DESIGN_GEOMETRIC_PRESENTATION_REPRESENTATION (  '', ( #8 ), #181 ) ;
#136 = EDGE_LOOP ( 'NONE', ( #38, #164, #178, #153 ) ) ;
#137 = EDGE_CURVE ( 'NONE', #84, #64, #60, .T. ) ;
#138 = VECTOR ( 'NONE', #86, 1000.000000000000000 ) ;
#139 = SURFACE_STYLE_FILL_AREA ( #53 ) ;
#140 = AXIS2_PLACEMENT_3D ( 'NONE', #162, #106, #161 ) ;
#141 = DIRECTION ( 'NONE',  ( 1.000000000000000000, 0.000000000000000000, 0.000000000000000000 ) ) ;
#142 = EDGE_CURVE ( 'NONE', #96, #84, #95, .T. ) ;
#143 = DIRECTION ( 'NONE',  ( 1.000000000000000000, 0.000000000000000000, 0.000000000000000000 ) ) ;
#144 = PLANE ( 'NONE',  #13 ) ;
#145 = PLANE ( 'NONE',  #88 ) ;
#146 = VECTOR ( 'NONE', #116, 1000.000000000000000 ) ;
#147 = PLANE ( 'NONE',  #140 ) ;
#148 = ORIENTED_EDGE ( 'NONE', *, *, #57, .T. ) ;
#149 = CARTESIAN_POINT ( 'NONE',  ( -20.00000000000000000, 20.00000000000000000, 0.000000000000000000 ) ) ;
#150 = ADVANCED_FACE ( 'NONE', ( #34 ), #144, .T. ) ;
#151 = EDGE_LOOP ( 'NONE', ( #157, #107, #180, #28 ) ) ;
#152 = ORIENTED_EDGE ( 'NONE', *, *, #184, .T. ) ;
#153 = ORIENTED_EDGE ( 'NONE', *, *, #142, .T. ) ;
#154 =( LENGTH_UNIT ( ) NAMED_UNIT ( * ) SI_UNIT ( .MILLI., .METRE. ) );
#155 =( GEOMETRIC_REPRESENTATION_CONTEXT ( 3 ) GLOBAL_UNCERTAINTY_ASSIGNED_CONTEXT ( ( #118 ) ) GLOBAL_UNIT_ASSIGNED_CONTEXT ( ( #48, #175, #177 ) ) REPRESENTATION_CONTEXT ( 'NONE', 'WORKASPACE' ) );
#156 = EDGE_CURVE ( 'NONE', #42, #79, #23, .T. ) ;
#157 = ORIENTED_EDGE ( 'NONE', *, *, #137, .F. ) ;
#158 = SURFACE_STYLE_USAGE ( .BOTH. , #14 ) ;
#159 = LINE ( 'NONE', #36, #69 ) ;
#160 = DIRECTION ( 'NONE',  ( 1.000000000000000000, 0.000000000000000000, 0.000000000000000000 ) ) ;
#161 = DIRECTION ( 'NONE',  ( 0.000000000000000000, 0.000000000000000000, 1.000000000000000000 ) ) ;
#162 = CARTESIAN_POINT ( 'NONE',  ( 20.00000000000000000, -20.00000000000000000, 40.00000000000000000 ) ) ;
#163 = VERTEX_POINT ( 'NONE', #149 ) ;
#164 = ORIENTED_EDGE ( 'NONE', *, *, #78, .F. ) ;
#165 = PRODUCT_DEFINITION_FORMATION_WITH_SPECIFIED_SOURCE ( 'ไป', '', #101, .NOT_KNOWN. ) ;
#166 = DIRECTION ( 'NONE',  ( 1.000000000000000000, 0.000000000000000000, 0.000000000000000000 ) ) ;
#167 = ORIENTED_EDGE ( 'NONE', *, *, #124, .T. ) ;
#168 = EDGE_CURVE ( 'NONE', #163, #81, #119, .T. ) ;
#169 = DIRECTION ( 'NONE',  ( 0.000000000000000000, 0.000000000000000000, -1.000000000000000000 ) ) ;
#170 = PRODUCT_DEFINITION_SHAPE ( 'NONE', 'NONE',  #114 ) ;
#171 = DIRECTION ( 'NONE',  ( -0.000000000000000000, -0.000000000000000000, -1.000000000000000000 ) ) ;
#172 = PLANE ( 'NONE',  #24 ) ;
#173 = DIRECTION ( 'NONE',  ( 0.000000000000000000, -0.000000000000000000, -1.000000000000000000 ) ) ;
#174 = VECTOR ( 'NONE', #92, 1000.000000000000000 ) ;
#175 =( NAMED_UNIT ( * ) PLANE_ANGLE_UNIT ( ) SI_UNIT ( $, .RADIAN. ) );
#176 = AXIS2_PLACEMENT_3D ( 'NONE', #47, #141, #72 ) ;
#177 =( NAMED_UNIT ( * ) SI_UNIT ( $, .STERADIAN. ) SOLID_ANGLE_UNIT ( ) );
#178 = ORIENTED_EDGE ( 'NONE', *, *, #11, .F. ) ;
#179 = CARTESIAN_POINT ( 'NONE',  ( -20.00000000000000000, 20.00000000000000000, 0.000000000000000000 ) ) ;
#180 = ORIENTED_EDGE ( 'NONE', *, *, #168, .F. ) ;
#181 =( GEOMETRIC_REPRESENTATION_CONTEXT ( 3 ) GLOBAL_UNCERTAINTY_ASSIGNED_CONTEXT ( ( #129 ) ) GLOBAL_UNIT_ASSIGNED_CONTEXT ( ( #154, #186, #187 ) ) REPRESENTATION_CONTEXT ( 'NONE', 'WORKASPACE' ) );
#182 = APPLICATION_PROTOCOL_DEFINITION ( 'draft international standard', 'automotive_design', 1998, #71 ) ;
#183 = CLOSED_SHELL ( 'NONE', ( #94, #109, #18, #3, #46, #150 ) ) ;
#184 = EDGE_CURVE ( 'NONE', #98, #96, #121, .T. ) ;
#185 = FACE_OUTER_BOUND ( 'NONE', #120, .T. ) ;
#186 =( NAMED_UNIT ( * ) PLANE_ANGLE_UNIT ( ) SI_UNIT ( $, .RADIAN. ) );
#187 =( NAMED_UNIT ( * ) SI_UNIT ( $, .STERADIAN. ) SOLID_ANGLE_UNIT ( ) );
ENDSEC;
END-ISO-10303-21;
