ISO-10303-21;
HEADER;
FILE_DESCRIPTION (( 'STEP AP214' ),
    '1' );
FILE_NAME ('cube_2_#9cbbd1.STEP',
    '2026-07-25T03:16:44',
    ( '' ),
    ( '' ),
    'SwSTEP 2.0',
    'SolidWorks 2025',
    '' );
FILE_SCHEMA (( 'AUTOMOTIVE_DESIGN' ));
ENDSEC;

DATA;
#1 = APPLICATION_PROTOCOL_DEFINITION ( 'draft international standard', 'automotive_design', 1998, #61 ) ;
#2 = LINE ( 'NONE', #92, #158 ) ;
#3 = VECTOR ( 'NONE', #166, 1000.000000000000000 ) ;
#4 =( GEOMETRIC_REPRESENTATION_CONTEXT ( 3 ) GLOBAL_UNCERTAINTY_ASSIGNED_CONTEXT ( ( #124 ) ) GLOBAL_UNIT_ASSIGNED_CONTEXT ( ( #97, #14, #185 ) ) REPRESENTATION_CONTEXT ( 'NONE', 'WORKASPACE' ) );
#5 = VERTEX_POINT ( 'NONE', #108 ) ;
#6 = SHAPE_DEFINITION_REPRESENTATION ( #43, #48 ) ;
#7 = CARTESIAN_POINT ( 'NONE',  ( 9.999999999999996447, 9.999999999999998224, 20.00000000000000000 ) ) ;
#8 = CARTESIAN_POINT ( 'NONE',  ( 9.999999999999996447, 9.999999999999998224, 0.000000000000000000 ) ) ;
#9 = VERTEX_POINT ( 'NONE', #78 ) ;
#10 = ORIENTED_EDGE ( 'NONE', *, *, #74, .T. ) ;
#11 = LINE ( 'NONE', #53, #24 ) ;
#12 = DIRECTION ( 'NONE',  ( -1.000000000000000000, 0.000000000000000000, 0.000000000000000000 ) ) ;
#13 = DIRECTION ( 'NONE',  ( -0.000000000000000000, -1.000000000000000000, -0.000000000000000000 ) ) ;
#14 =( NAMED_UNIT ( * ) PLANE_ANGLE_UNIT ( ) SI_UNIT ( $, .RADIAN. ) );
#15 = DIRECTION ( 'NONE',  ( 1.000000000000000000, 0.000000000000000000, 0.000000000000000000 ) ) ;
#16 = DIRECTION ( 'NONE',  ( 0.000000000000000000, -0.000000000000000000, 1.000000000000000000 ) ) ;
#17 =( LENGTH_UNIT ( ) NAMED_UNIT ( * ) SI_UNIT ( .MILLI., .METRE. ) );
#18 = CARTESIAN_POINT ( 'NONE',  ( 0.000000000000000000, 0.000000000000000000, 0.000000000000000000 ) ) ;
#19 = EDGE_CURVE ( 'NONE', #94, #31, #51, .T. ) ;
#20 = VECTOR ( 'NONE', #76, 1000.000000000000000 ) ;
#21 = PLANE ( 'NONE',  #148 ) ;
#22 = ORIENTED_EDGE ( 'NONE', *, *, #127, .T. ) ;
#23 = DIRECTION ( 'NONE',  ( 1.000000000000000000, 0.000000000000000000, 0.000000000000000000 ) ) ;
#24 = VECTOR ( 'NONE', #157, 1000.000000000000000 ) ;
#25 = DIRECTION ( 'NONE',  ( 0.000000000000000000, 0.000000000000000000, -1.000000000000000000 ) ) ;
#26 = DIRECTION ( 'NONE',  ( -1.000000000000000000, 0.000000000000000000, -0.000000000000000000 ) ) ;
#27 = CARTESIAN_POINT ( 'NONE',  ( -10.00000000000000355, -10.00000000000000178, 20.00000000000000000 ) ) ;
#28 = AXIS2_PLACEMENT_3D ( 'NONE', #73, #12, #122 ) ;
#29 = ORIENTED_EDGE ( 'NONE', *, *, #118, .F. ) ;
#30 = VECTOR ( 'NONE', #13, 1000.000000000000000 ) ;
#31 = VERTEX_POINT ( 'NONE', #8 ) ;
#32 = EDGE_CURVE ( 'NONE', #96, #94, #34, .T. ) ;
#33 = FACE_OUTER_BOUND ( 'NONE', #91, .T. ) ;
#34 = LINE ( 'NONE', #63, #168 ) ;
#35 = PLANE ( 'NONE',  #69 ) ;
#36 = ADVANCED_FACE ( 'NONE', ( #33 ), #21, .F. ) ;
#37 = CARTESIAN_POINT ( 'NONE',  ( 9.999999999999996447, -10.00000000000000178, 0.000000000000000000 ) ) ;
#38 = LINE ( 'NONE', #141, #39 ) ;
#39 = VECTOR ( 'NONE', #143, 1000.000000000000000 ) ;
#40 = CARTESIAN_POINT ( 'NONE',  ( 9.999999999999996447, -10.00000000000000178, 0.000000000000000000 ) ) ;
#41 = PRODUCT_DEFINITION_FORMATION_WITH_SPECIFIED_SOURCE ( 'ไป', '', #75, .NOT_KNOWN. ) ;
#42 = LINE ( 'NONE', #138, #147 ) ;
#43 = PRODUCT_DEFINITION_SHAPE ( 'NONE', 'NONE',  #154 ) ;
#44 = PRODUCT_DEFINITION_CONTEXT ( 'detailed design', #49, 'design' ) ;
#45 = ORIENTED_EDGE ( 'NONE', *, *, #174, .F. ) ;
#46 = CARTESIAN_POINT ( 'NONE',  ( -10.00000000000000355, -10.00000000000000178, 20.00000000000000000 ) ) ;
#47 =( NAMED_UNIT ( * ) PLANE_ANGLE_UNIT ( ) SI_UNIT ( $, .RADIAN. ) );
#48 = ADVANCED_BREP_SHAPE_REPRESENTATION ( 'cube_2_#9cbbd1', ( #137, #142 ), #57 ) ;
#49 = APPLICATION_CONTEXT ( 'automotive_design' ) ;
#50 = ORIENTED_EDGE ( 'NONE', *, *, #134, .F. ) ;
#51 = LINE ( 'NONE', #7, #3 ) ;
#52 = FACE_OUTER_BOUND ( 'NONE', #80, .T. ) ;
#53 = CARTESIAN_POINT ( 'NONE',  ( -10.00000000000000355, 9.999999999999998224, 20.00000000000000000 ) ) ;
#54 = FACE_OUTER_BOUND ( 'NONE', #152, .T. ) ;
#55 = DIRECTION ( 'NONE',  ( 0.000000000000000000, -1.000000000000000000, 0.000000000000000000 ) ) ;
#56 = FILL_AREA_STYLE_COLOUR ( '', #164 ) ;
#57 =( GEOMETRIC_REPRESENTATION_CONTEXT ( 3 ) GLOBAL_UNCERTAINTY_ASSIGNED_CONTEXT ( ( #162 ) ) GLOBAL_UNIT_ASSIGNED_CONTEXT ( ( #17, #47, #172 ) ) REPRESENTATION_CONTEXT ( 'NONE', 'WORKASPACE' ) );
#58 = PRODUCT_CONTEXT ( 'NONE', #61, 'mechanical' ) ;
#59 = LINE ( 'NONE', #27, #20 ) ;
#60 = VECTOR ( 'NONE', #70, 1000.000000000000000 ) ;
#61 = APPLICATION_CONTEXT ( 'automotive_design' ) ;
#62 = EDGE_CURVE ( 'NONE', #9, #176, #159, .T. ) ;
#63 = CARTESIAN_POINT ( 'NONE',  ( 9.999999999999996447, -10.00000000000000178, 20.00000000000000000 ) ) ;
#64 = CARTESIAN_POINT ( 'NONE',  ( -10.00000000000000355, -10.00000000000000178, 0.000000000000000000 ) ) ;
#65 = PRESENTATION_LAYER_ASSIGNMENT (  '', '', ( #183 ) ) ;
#66 = ORIENTED_EDGE ( 'NONE', *, *, #62, .T. ) ;
#67 = VERTEX_POINT ( 'NONE', #40 ) ;
#68 = DIRECTION ( 'NONE',  ( 0.000000000000000000, 0.000000000000000000, -1.000000000000000000 ) ) ;
#69 = AXIS2_PLACEMENT_3D ( 'NONE', #139, #68, #114 ) ;
#70 = DIRECTION ( 'NONE',  ( -0.000000000000000000, -0.000000000000000000, -1.000000000000000000 ) ) ;
#71 = LINE ( 'NONE', #182, #60 ) ;
#72 = CARTESIAN_POINT ( 'NONE',  ( 9.999999999999996447, -10.00000000000000178, 20.00000000000000000 ) ) ;
#73 = CARTESIAN_POINT ( 'NONE',  ( 9.999999999999996447, -10.00000000000000178, 20.00000000000000000 ) ) ;
#74 = EDGE_CURVE ( 'NONE', #9, #5, #11, .T. ) ;
#75 = PRODUCT ( 'cube_2_#9cbbd1', 'cube_2_#9cbbd1', '', ( #58 ) ) ;
#76 = DIRECTION ( 'NONE',  ( -0.000000000000000000, -0.000000000000000000, -1.000000000000000000 ) ) ;
#77 = CARTESIAN_POINT ( 'NONE',  ( -10.00000000000000355, -10.00000000000000178, 20.00000000000000000 ) ) ;
#78 = CARTESIAN_POINT ( 'NONE',  ( -10.00000000000000355, 9.999999999999998224, 20.00000000000000000 ) ) ;
#79 = ORIENTED_EDGE ( 'NONE', *, *, #161, .F. ) ;
#80 = EDGE_LOOP ( 'NONE', ( #106, #121, #66, #133 ) ) ;
#81 = VECTOR ( 'NONE', #130, 1000.000000000000000 ) ;
#82 = FACE_OUTER_BOUND ( 'NONE', #153, .T. ) ;
#83 = ADVANCED_FACE ( 'NONE', ( #82 ), #84, .T. ) ;
#84 = PLANE ( 'NONE',  #131 ) ;
#85 = FACE_OUTER_BOUND ( 'NONE', #117, .T. ) ;
#86 = LINE ( 'NONE', #37, #186 ) ;
#87 = ADVANCED_FACE ( 'NONE', ( #54 ), #167, .F. ) ;
#88 = DIRECTION ( 'NONE',  ( -0.000000000000000000, -1.000000000000000000, -0.000000000000000000 ) ) ;
#89 = MECHANICAL_DESIGN_GEOMETRIC_PRESENTATION_REPRESENTATION (  '', ( #183 ), #4 ) ;
#90 = LINE ( 'NONE', #105, #81 ) ;
#91 = EDGE_LOOP ( 'NONE', ( #175, #104, #107, #10 ) ) ;
#92 = CARTESIAN_POINT ( 'NONE',  ( -10.00000000000000355, 9.999999999999998224, 0.000000000000000000 ) ) ;
#93 = ORIENTED_EDGE ( 'NONE', *, *, #74, .F. ) ;
#94 = VERTEX_POINT ( 'NONE', #155 ) ;
#95 = ORIENTED_EDGE ( 'NONE', *, *, #127, .F. ) ;
#96 = VERTEX_POINT ( 'NONE', #72 ) ;
#97 =( LENGTH_UNIT ( ) NAMED_UNIT ( * ) SI_UNIT ( .MILLI., .METRE. ) );
#98 = CARTESIAN_POINT ( 'NONE',  ( 0.000000000000000000, 0.000000000000000000, 0.000000000000000000 ) ) ;
#99 = PLANE ( 'NONE',  #109 ) ;
#100 = PRESENTATION_STYLE_ASSIGNMENT (( #170 ) ) ;
#101 = AXIS2_PLACEMENT_3D ( 'NONE', #46, #173, #16 ) ;
#102 = ADVANCED_FACE ( 'NONE', ( #52 ), #35, .F. ) ;
#103 = ORIENTED_EDGE ( 'NONE', *, *, #123, .F. ) ;
#104 = ORIENTED_EDGE ( 'NONE', *, *, #160, .F. ) ;
#105 = CARTESIAN_POINT ( 'NONE',  ( -10.00000000000000355, 9.999999999999998224, 20.00000000000000000 ) ) ;
#106 = ORIENTED_EDGE ( 'NONE', *, *, #32, .T. ) ;
#107 = ORIENTED_EDGE ( 'NONE', *, *, #62, .F. ) ;
#108 = CARTESIAN_POINT ( 'NONE',  ( -10.00000000000000355, 9.999999999999998224, 0.000000000000000000 ) ) ;
#109 = AXIS2_PLACEMENT_3D ( 'NONE', #126, #55, #113 ) ;
#110 = SURFACE_STYLE_FILL_AREA ( #140 ) ;
#111 = DIRECTION ( 'NONE',  ( 0.000000000000000000, 0.000000000000000000, -1.000000000000000000 ) ) ;
#112 = SURFACE_SIDE_STYLE ('',( #110 ) ) ;
#113 = DIRECTION ( 'NONE',  ( 0.000000000000000000, -0.000000000000000000, -1.000000000000000000 ) ) ;
#114 = DIRECTION ( 'NONE',  ( -1.000000000000000000, 0.000000000000000000, -0.000000000000000000 ) ) ;
#115 = DIRECTION ( 'NONE',  ( 1.000000000000000000, 0.000000000000000000, 0.000000000000000000 ) ) ;
#116 = ORIENTED_EDGE ( 'NONE', *, *, #134, .T. ) ;
#117 = EDGE_LOOP ( 'NONE', ( #163, #93, #45, #178 ) ) ;
#118 = EDGE_CURVE ( 'NONE', #96, #67, #71, .T. ) ;
#119 = CLOSED_SHELL ( 'NONE', ( #87, #149, #36, #156, #102, #83 ) ) ;
#120 = ORIENTED_EDGE ( 'NONE', *, *, #180, .F. ) ;
#121 = ORIENTED_EDGE ( 'NONE', *, *, #174, .T. ) ;
#122 = DIRECTION ( 'NONE',  ( 0.000000000000000000, 0.000000000000000000, 1.000000000000000000 ) ) ;
#123 = EDGE_CURVE ( 'NONE', #176, #96, #38, .T. ) ;
#124 = UNCERTAINTY_MEASURE_WITH_UNIT (LENGTH_MEASURE( 1.000000000000000082E-05 ), #97, 'distance_accuracy_value', 'NONE');
#125 = CARTESIAN_POINT ( 'NONE',  ( -10.00000000000000355, -10.00000000000000178, 0.000000000000000000 ) ) ;
#126 = CARTESIAN_POINT ( 'NONE',  ( -10.00000000000000355, 9.999999999999998224, 20.00000000000000000 ) ) ;
#127 = EDGE_CURVE ( 'NONE', #67, #31, #86, .T. ) ;
#128 = DIRECTION ( 'NONE',  ( 0.000000000000000000, 1.000000000000000000, 0.000000000000000000 ) ) ;
#129 = LINE ( 'NONE', #64, #171 ) ;
#130 = DIRECTION ( 'NONE',  ( -1.000000000000000000, -0.000000000000000000, -0.000000000000000000 ) ) ;
#131 = AXIS2_PLACEMENT_3D ( 'NONE', #98, #111, #26 ) ;
#132 = APPLICATION_PROTOCOL_DEFINITION ( 'draft international standard', 'automotive_design', 1998, #49 ) ;
#133 = ORIENTED_EDGE ( 'NONE', *, *, #123, .T. ) ;
#134 = EDGE_CURVE ( 'NONE', #135, #67, #42, .T. ) ;
#135 = VERTEX_POINT ( 'NONE', #125 ) ;
#136 = ORIENTED_EDGE ( 'NONE', *, *, #19, .F. ) ;
#137 = MANIFOLD_SOLID_BREP ( '\X2\51f853f0\X0\-\X2\62c94f38\X0\1', #119 ) ;
#138 = CARTESIAN_POINT ( 'NONE',  ( -10.00000000000000355, -10.00000000000000178, 0.000000000000000000 ) ) ;
#139 = CARTESIAN_POINT ( 'NONE',  ( 0.000000000000000000, 0.000000000000000000, 20.00000000000000000 ) ) ;
#140 = FILL_AREA_STYLE ('',( #56 ) ) ;
#141 = CARTESIAN_POINT ( 'NONE',  ( -10.00000000000000355, -10.00000000000000178, 20.00000000000000000 ) ) ;
#142 = AXIS2_PLACEMENT_3D ( 'NONE', #18, #146, #115 ) ;
#143 = DIRECTION ( 'NONE',  ( 1.000000000000000000, 0.000000000000000000, 0.000000000000000000 ) ) ;
#144 = PRODUCT_RELATED_PRODUCT_CATEGORY ( 'part', '', ( #75 ) ) ;
#145 = DIRECTION ( 'NONE',  ( -1.000000000000000000, -0.000000000000000000, -0.000000000000000000 ) ) ;
#146 = DIRECTION ( 'NONE',  ( 0.000000000000000000, 0.000000000000000000, 1.000000000000000000 ) ) ;
#147 = VECTOR ( 'NONE', #23, 1000.000000000000000 ) ;
#148 = AXIS2_PLACEMENT_3D ( 'NONE', #187, #15, #25 ) ;
#149 = ADVANCED_FACE ( 'NONE', ( #85 ), #99, .F. ) ;
#150 = ORIENTED_EDGE ( 'NONE', *, *, #32, .F. ) ;
#151 = ORIENTED_EDGE ( 'NONE', *, *, #118, .T. ) ;
#152 = EDGE_LOOP ( 'NONE', ( #22, #136, #150, #151 ) ) ;
#153 = EDGE_LOOP ( 'NONE', ( #95, #50, #79, #120 ) ) ;
#154 = PRODUCT_DEFINITION ( 'ๆ', '', #41, #44 ) ;
#155 = CARTESIAN_POINT ( 'NONE',  ( 9.999999999999996447, 9.999999999999998224, 20.00000000000000000 ) ) ;
#156 = ADVANCED_FACE ( 'NONE', ( #169 ), #177, .F. ) ;
#157 = DIRECTION ( 'NONE',  ( -0.000000000000000000, -0.000000000000000000, -1.000000000000000000 ) ) ;
#158 = VECTOR ( 'NONE', #145, 1000.000000000000000 ) ;
#159 = LINE ( 'NONE', #184, #30 ) ;
#160 = EDGE_CURVE ( 'NONE', #176, #135, #59, .T. ) ;
#161 = EDGE_CURVE ( 'NONE', #5, #135, #129, .T. ) ;
#162 = UNCERTAINTY_MEASURE_WITH_UNIT (LENGTH_MEASURE( 1.000000000000000082E-05 ), #17, 'distance_accuracy_value', 'NONE');
#163 = ORIENTED_EDGE ( 'NONE', *, *, #180, .T. ) ;
#164 = COLOUR_RGB ( '',0.7921568627450980005, 0.8196078431372548767, 0.9333333333333333481 ) ;
#165 = DIRECTION ( 'NONE',  ( 0.000000000000000000, 1.000000000000000000, 0.000000000000000000 ) ) ;
#166 = DIRECTION ( 'NONE',  ( -0.000000000000000000, -0.000000000000000000, -1.000000000000000000 ) ) ;
#167 = PLANE ( 'NONE',  #28 ) ;
#168 = VECTOR ( 'NONE', #165, 1000.000000000000000 ) ;
#169 = FACE_OUTER_BOUND ( 'NONE', #181, .T. ) ;
#170 = SURFACE_STYLE_USAGE ( .BOTH. , #112 ) ;
#171 = VECTOR ( 'NONE', #88, 1000.000000000000000 ) ;
#172 =( NAMED_UNIT ( * ) SI_UNIT ( $, .STERADIAN. ) SOLID_ANGLE_UNIT ( ) );
#173 = DIRECTION ( 'NONE',  ( 0.000000000000000000, 1.000000000000000000, 0.000000000000000000 ) ) ;
#174 = EDGE_CURVE ( 'NONE', #94, #9, #90, .T. ) ;
#175 = ORIENTED_EDGE ( 'NONE', *, *, #161, .T. ) ;
#176 = VERTEX_POINT ( 'NONE', #77 ) ;
#177 = PLANE ( 'NONE',  #101 ) ;
#178 = ORIENTED_EDGE ( 'NONE', *, *, #19, .T. ) ;
#179 = ORIENTED_EDGE ( 'NONE', *, *, #160, .T. ) ;
#180 = EDGE_CURVE ( 'NONE', #31, #5, #2, .T. ) ;
#181 = EDGE_LOOP ( 'NONE', ( #116, #29, #103, #179 ) ) ;
#182 = CARTESIAN_POINT ( 'NONE',  ( 9.999999999999996447, -10.00000000000000178, 20.00000000000000000 ) ) ;
#183 = STYLED_ITEM ( 'NONE', ( #100 ), #137 ) ;
#184 = CARTESIAN_POINT ( 'NONE',  ( -10.00000000000000355, -10.00000000000000178, 20.00000000000000000 ) ) ;
#185 =( NAMED_UNIT ( * ) SI_UNIT ( $, .STERADIAN. ) SOLID_ANGLE_UNIT ( ) );
#186 = VECTOR ( 'NONE', #128, 1000.000000000000000 ) ;
#187 = CARTESIAN_POINT ( 'NONE',  ( -10.00000000000000355, -10.00000000000000178, 20.00000000000000000 ) ) ;
ENDSEC;
END-ISO-10303-21;
