ISO-10303-21;
HEADER;
FILE_DESCRIPTION (( 'STEP AP214' ),
    '1' );
FILE_NAME ('cylinder_4_#9cbbd1.STEP',
    '2026-07-25T03:12:31',
    ( '' ),
    ( '' ),
    'SwSTEP 2.0',
    'SolidWorks 2025',
    '' );
FILE_SCHEMA (( 'AUTOMOTIVE_DESIGN' ));
ENDSEC;

DATA;
#1 = EDGE_CURVE ( 'NONE', #52, #117, #15, .T. ) ;
#2 = ORIENTED_EDGE ( 'NONE', *, *, #111, .T. ) ;
#3 = EDGE_LOOP ( 'NONE', ( #37, #118 ) ) ;
#4 = ADVANCED_FACE ( 'NONE', ( #23 ), #41, .T. ) ;
#5 = FACE_OUTER_BOUND ( 'NONE', #3, .T. ) ;
#6 =( NAMED_UNIT ( * ) SI_UNIT ( $, .STERADIAN. ) SOLID_ANGLE_UNIT ( ) );
#7 = DIRECTION ( 'NONE',  ( 0.000000000000000000, 1.000000000000000000, 0.000000000000000000 ) ) ;
#8 = DIRECTION ( 'NONE',  ( 0.000000000000000000, 0.000000000000000000, 1.000000000000000000 ) ) ;
#9 = MANIFOLD_SOLID_BREP ( '\X2\51f853f0\X0\-\X2\62c94f38\X0\1', #105 ) ;
#10 = AXIS2_PLACEMENT_3D ( 'NONE', #110, #94, #8 ) ;
#11 = STYLED_ITEM ( 'NONE', ( #83 ), #9 ) ;
#12 = ORIENTED_EDGE ( 'NONE', *, *, #1, .F. ) ;
#13 = PRODUCT ( 'cylinder_4_#9cbbd1', 'cylinder_4_#9cbbd1', '', ( #96 ) ) ;
#14 = CARTESIAN_POINT ( 'NONE',  ( 0.000000000000000000, 40.00000000000000000, -20.00000000000000000 ) ) ;
#15 = CIRCLE ( 'NONE', #64, 20.00000000000000000 ) ;
#16 =( NAMED_UNIT ( * ) SI_UNIT ( $, .STERADIAN. ) SOLID_ANGLE_UNIT ( ) );
#17 =( LENGTH_UNIT ( ) NAMED_UNIT ( * ) SI_UNIT ( .MILLI., .METRE. ) );
#18 =( LENGTH_UNIT ( ) NAMED_UNIT ( * ) SI_UNIT ( .MILLI., .METRE. ) );
#19 = CARTESIAN_POINT ( 'NONE',  ( 0.000000000000000000, 40.00000000000000000, -20.00000000000000000 ) ) ;
#20 = CARTESIAN_POINT ( 'NONE',  ( 0.000000000000000000, 0.000000000000000000, 0.000000000000000000 ) ) ;
#21 = DIRECTION ( 'NONE',  ( -0.000000000000000000, -1.000000000000000000, -0.000000000000000000 ) ) ;
#22 = EDGE_CURVE ( 'NONE', #52, #49, #90, .T. ) ;
#23 = FACE_OUTER_BOUND ( 'NONE', #108, .T. ) ;
#24 = EDGE_CURVE ( 'NONE', #49, #80, #29, .T. ) ;
#25 = COLOUR_RGB ( '',0.7921568627450980005, 0.8196078431372548767, 0.9333333333333333481 ) ;
#26 = ORIENTED_EDGE ( 'NONE', *, *, #59, .F. ) ;
#27 = AXIS2_PLACEMENT_3D ( 'NONE', #33, #66, #104 ) ;
#28 = ORIENTED_EDGE ( 'NONE', *, *, #35, .F. ) ;
#29 = CIRCLE ( 'NONE', #125, 20.00000000000000000 ) ;
#30 = DIRECTION ( 'NONE',  ( 0.000000000000000000, -0.000000000000000000, 1.000000000000000000 ) ) ;
#31 = CARTESIAN_POINT ( 'NONE',  ( 0.000000000000000000, 40.00000000000000000, 0.000000000000000000 ) ) ;
#32 = DIRECTION ( 'NONE',  ( -0.000000000000000000, -1.000000000000000000, -0.000000000000000000 ) ) ;
#33 = CARTESIAN_POINT ( 'NONE',  ( 0.000000000000000000, 40.00000000000000000, 0.000000000000000000 ) ) ;
#34 = CARTESIAN_POINT ( 'NONE',  ( 0.000000000000000000, 40.00000000000000000, 0.000000000000000000 ) ) ;
#35 = EDGE_CURVE ( 'NONE', #117, #80, #121, .T. ) ;
#36 = ADVANCED_FACE ( 'NONE', ( #62 ), #56, .F. ) ;
#37 = ORIENTED_EDGE ( 'NONE', *, *, #1, .T. ) ;
#38 = EDGE_LOOP ( 'NONE', ( #28, #12, #116, #71 ) ) ;
#39 = EDGE_LOOP ( 'NONE', ( #86, #109 ) ) ;
#40 = DIRECTION ( 'NONE',  ( -0.000000000000000000, -1.000000000000000000, -0.000000000000000000 ) ) ;
#41 = CYLINDRICAL_SURFACE ( 'NONE', #98, 20.00000000000000000 ) ;
#42 = PRODUCT_DEFINITION_FORMATION_WITH_SPECIFIED_SOURCE ( 'ไป', '', #13, .NOT_KNOWN. ) ;
#43 = DIRECTION ( 'NONE',  ( 0.000000000000000000, 0.000000000000000000, -1.000000000000000000 ) ) ;
#44 = CARTESIAN_POINT ( 'NONE',  ( 2.449293598294706513E-15, 40.00000000000000000, 20.00000000000000000 ) ) ;
#45 = CIRCLE ( 'NONE', #10, 20.00000000000000000 ) ;
#46 = CARTESIAN_POINT ( 'NONE',  ( 0.000000000000000000, 0.000000000000000000, 0.000000000000000000 ) ) ;
#47 = AXIS2_PLACEMENT_3D ( 'NONE', #92, #7, #30 ) ;
#48 = ORIENTED_EDGE ( 'NONE', *, *, #35, .T. ) ;
#49 = VERTEX_POINT ( 'NONE', #122 ) ;
#50 = CIRCLE ( 'NONE', #67, 20.00000000000000000 ) ;
#51 = ADVANCED_FACE ( 'NONE', ( #5 ), #74, .T. ) ;
#52 = VERTEX_POINT ( 'NONE', #19 ) ;
#53 =( NAMED_UNIT ( * ) PLANE_ANGLE_UNIT ( ) SI_UNIT ( $, .RADIAN. ) );
#54 =( NAMED_UNIT ( * ) PLANE_ANGLE_UNIT ( ) SI_UNIT ( $, .RADIAN. ) );
#55 = DIRECTION ( 'NONE',  ( 0.000000000000000000, 0.000000000000000000, 1.000000000000000000 ) ) ;
#56 = PLANE ( 'NONE',  #47 ) ;
#57 = VECTOR ( 'NONE', #82, 1000.000000000000000 ) ;
#58 = CARTESIAN_POINT ( 'NONE',  ( 0.000000000000000000, 0.000000000000000000, 0.000000000000000000 ) ) ;
#59 = EDGE_CURVE ( 'NONE', #117, #52, #45, .T. ) ;
#60 = MECHANICAL_DESIGN_GEOMETRIC_PRESENTATION_REPRESENTATION (  '', ( #11 ), #124 ) ;
#61 = CARTESIAN_POINT ( 'NONE',  ( 0.000000000000000000, 40.00000000000000000, 0.000000000000000000 ) ) ;
#62 = FACE_OUTER_BOUND ( 'NONE', #39, .T. ) ;
#63 = CYLINDRICAL_SURFACE ( 'NONE', #115, 20.00000000000000000 ) ;
#64 = AXIS2_PLACEMENT_3D ( 'NONE', #61, #73, #113 ) ;
#65 = SURFACE_STYLE_USAGE ( .BOTH. , #103 ) ;
#66 = DIRECTION ( 'NONE',  ( 0.000000000000000000, 1.000000000000000000, 0.000000000000000000 ) ) ;
#67 = AXIS2_PLACEMENT_3D ( 'NONE', #20, #99, #55 ) ;
#68 = APPLICATION_CONTEXT ( 'automotive_design' ) ;
#69 = DIRECTION ( 'NONE',  ( 1.000000000000000000, 0.000000000000000000, 0.000000000000000000 ) ) ;
#70 = AXIS2_PLACEMENT_3D ( 'NONE', #46, #95, #69 ) ;
#71 = ORIENTED_EDGE ( 'NONE', *, *, #24, .T. ) ;
#72 = VECTOR ( 'NONE', #32, 1000.000000000000000 ) ;
#73 = DIRECTION ( 'NONE',  ( 0.000000000000000000, 1.000000000000000000, 0.000000000000000000 ) ) ;
#74 = PLANE ( 'NONE',  #27 ) ;
#75 = UNCERTAINTY_MEASURE_WITH_UNIT (LENGTH_MEASURE( 1.000000000000000082E-05 ), #18, 'distance_accuracy_value', 'NONE');
#76 = PRODUCT_DEFINITION ( 'ๆ', '', #42, #101 ) ;
#77 = ADVANCED_BREP_SHAPE_REPRESENTATION ( 'cylinder_4_#9cbbd1', ( #9, #70 ), #81 ) ;
#78 = SHAPE_DEFINITION_REPRESENTATION ( #87, #77 ) ;
#79 = APPLICATION_CONTEXT ( 'automotive_design' ) ;
#80 = VERTEX_POINT ( 'NONE', #84 ) ;
#81 =( GEOMETRIC_REPRESENTATION_CONTEXT ( 3 ) GLOBAL_UNCERTAINTY_ASSIGNED_CONTEXT ( ( #91 ) ) GLOBAL_UNIT_ASSIGNED_CONTEXT ( ( #17, #53, #6 ) ) REPRESENTATION_CONTEXT ( 'NONE', 'WORKASPACE' ) );
#82 = DIRECTION ( 'NONE',  ( -0.000000000000000000, -1.000000000000000000, -0.000000000000000000 ) ) ;
#83 = PRESENTATION_STYLE_ASSIGNMENT (( #65 ) ) ;
#84 = CARTESIAN_POINT ( 'NONE',  ( 2.449293598294706513E-15, 0.000000000000000000, 20.00000000000000000 ) ) ;
#85 = PRODUCT_RELATED_PRODUCT_CATEGORY ( 'part', '', ( #13 ) ) ;
#86 = ORIENTED_EDGE ( 'NONE', *, *, #24, .F. ) ;
#87 = PRODUCT_DEFINITION_SHAPE ( 'NONE', 'NONE',  #76 ) ;
#88 = DIRECTION ( 'NONE',  ( 0.000000000000000000, 1.000000000000000000, 0.000000000000000000 ) ) ;
#89 = CARTESIAN_POINT ( 'NONE',  ( 2.449293598294706513E-15, 40.00000000000000000, 20.00000000000000000 ) ) ;
#90 = LINE ( 'NONE', #14, #57 ) ;
#91 = UNCERTAINTY_MEASURE_WITH_UNIT (LENGTH_MEASURE( 1.000000000000000082E-05 ), #17, 'distance_accuracy_value', 'NONE');
#92 = CARTESIAN_POINT ( 'NONE',  ( 0.000000000000000000, 0.000000000000000000, 0.000000000000000000 ) ) ;
#93 = APPLICATION_PROTOCOL_DEFINITION ( 'draft international standard', 'automotive_design', 1998, #68 ) ;
#94 = DIRECTION ( 'NONE',  ( 0.000000000000000000, 1.000000000000000000, 0.000000000000000000 ) ) ;
#95 = DIRECTION ( 'NONE',  ( 0.000000000000000000, 0.000000000000000000, 1.000000000000000000 ) ) ;
#96 = PRODUCT_CONTEXT ( 'NONE', #68, 'mechanical' ) ;
#97 = ORIENTED_EDGE ( 'NONE', *, *, #22, .F. ) ;
#98 = AXIS2_PLACEMENT_3D ( 'NONE', #31, #21, #43 ) ;
#99 = DIRECTION ( 'NONE',  ( 0.000000000000000000, 1.000000000000000000, 0.000000000000000000 ) ) ;
#100 = PRESENTATION_LAYER_ASSIGNMENT (  '', '', ( #11 ) ) ;
#101 = PRODUCT_DEFINITION_CONTEXT ( 'detailed design', #79, 'design' ) ;
#102 = FILL_AREA_STYLE ('',( #114 ) ) ;
#103 = SURFACE_SIDE_STYLE ('',( #120 ) ) ;
#104 = DIRECTION ( 'NONE',  ( 0.000000000000000000, -0.000000000000000000, 1.000000000000000000 ) ) ;
#105 = CLOSED_SHELL ( 'NONE', ( #4, #107, #51, #36 ) ) ;
#106 = APPLICATION_PROTOCOL_DEFINITION ( 'draft international standard', 'automotive_design', 1998, #79 ) ;
#107 = ADVANCED_FACE ( 'NONE', ( #123 ), #63, .T. ) ;
#108 = EDGE_LOOP ( 'NONE', ( #26, #48, #2, #97 ) ) ;
#109 = ORIENTED_EDGE ( 'NONE', *, *, #111, .F. ) ;
#110 = CARTESIAN_POINT ( 'NONE',  ( 0.000000000000000000, 40.00000000000000000, 0.000000000000000000 ) ) ;
#111 = EDGE_CURVE ( 'NONE', #80, #49, #50, .T. ) ;
#112 = DIRECTION ( 'NONE',  ( 0.000000000000000000, 0.000000000000000000, 1.000000000000000000 ) ) ;
#113 = DIRECTION ( 'NONE',  ( 0.000000000000000000, 0.000000000000000000, 1.000000000000000000 ) ) ;
#114 = FILL_AREA_STYLE_COLOUR ( '', #25 ) ;
#115 = AXIS2_PLACEMENT_3D ( 'NONE', #34, #40, #119 ) ;
#116 = ORIENTED_EDGE ( 'NONE', *, *, #22, .T. ) ;
#117 = VERTEX_POINT ( 'NONE', #89 ) ;
#118 = ORIENTED_EDGE ( 'NONE', *, *, #59, .T. ) ;
#119 = DIRECTION ( 'NONE',  ( 0.000000000000000000, 0.000000000000000000, -1.000000000000000000 ) ) ;
#120 = SURFACE_STYLE_FILL_AREA ( #102 ) ;
#121 = LINE ( 'NONE', #44, #72 ) ;
#122 = CARTESIAN_POINT ( 'NONE',  ( 0.000000000000000000, 0.000000000000000000, -20.00000000000000000 ) ) ;
#123 = FACE_OUTER_BOUND ( 'NONE', #38, .T. ) ;
#124 =( GEOMETRIC_REPRESENTATION_CONTEXT ( 3 ) GLOBAL_UNCERTAINTY_ASSIGNED_CONTEXT ( ( #75 ) ) GLOBAL_UNIT_ASSIGNED_CONTEXT ( ( #18, #54, #16 ) ) REPRESENTATION_CONTEXT ( 'NONE', 'WORKASPACE' ) );
#125 = AXIS2_PLACEMENT_3D ( 'NONE', #58, #88, #112 ) ;
ENDSEC;
END-ISO-10303-21;
